REM DIRINDEX 1\2\6,1\2\7,1\2\8,1\2\9,1\3\10,1\3\11,1\4\12,1\4\13,1\4\14,1\5\15,1\5\16,1\5\17
REM DIRNAME folder01,folder02,folder03,folder04,folder05,folder06,folder07,folder08,folder09,folder10,folder11,folder12,folder13,folder14,folder15,folder16,folder17
TITLE ""
FILE "1400_2_sec02_0116_0132.mp3" MP3
  TRACK 01 AUDIO
    TITLE "0:"
    INDEX 01 00:00:00
  TRACK 02 AUDIO
    TITLE "13:cjc029_1800"
    INDEX 01 00:00:19
  TRACK 03 AUDIO
    TITLE "0:"
    INDEX 01 00:01:40
  TRACK 04 AUDIO
    TITLE "14:cjc029_1801"
    INDEX 01 00:01:48
  TRACK 05 AUDIO
    TITLE "0:"
    INDEX 01 00:04:50
  TRACK 06 AUDIO
    TITLE "13:cjc029_1802"
    INDEX 01 00:05:30
  TRACK 07 AUDIO
    TITLE "0:"
    INDEX 01 00:06:47
  TRACK 08 AUDIO
    TITLE "14:cjc029_1803"
    INDEX 01 00:06:55
  TRACK 09 AUDIO
    TITLE "0:"
    INDEX 01 00:07:68
  TRACK 10 AUDIO
    TITLE "13:cjc029_1804"
    INDEX 01 00:08:50
  TRACK 11 AUDIO
    TITLE "0:"
    INDEX 01 00:09:57
  TRACK 12 AUDIO
    TITLE "14:cjc029_1805"
    INDEX 01 00:09:63
  TRACK 13 AUDIO
    TITLE "0:"
    INDEX 01 00:14:62
  TRACK 14 AUDIO
    TITLE "13:cjc029_1806"
    INDEX 01 00:15:42
  TRACK 15 AUDIO
    TITLE "0:"
    INDEX 01 00:16:59
  TRACK 16 AUDIO
    TITLE "14:cjc029_1807"
    INDEX 01 00:16:67
  TRACK 17 AUDIO
    TITLE "0:"
    INDEX 01 00:19:07
  TRACK 18 AUDIO
    TITLE "13:cjc029_1808"
    INDEX 01 00:19:67
  TRACK 19 AUDIO
    TITLE "0:"
    INDEX 01 00:21:04
  TRACK 20 AUDIO
    TITLE "14:cjc029_1809"
    INDEX 01 00:21:09
  TRACK 21 AUDIO
    TITLE "0:"
    INDEX 01 00:24:20
  TRACK 22 AUDIO
    TITLE "13:cjc029_1810"
    INDEX 01 00:25:01
  TRACK 23 AUDIO
    TITLE "0:"
    INDEX 01 00:26:11
  TRACK 24 AUDIO
    TITLE "14:cjc029_1811"
    INDEX 01 00:26:18
  TRACK 25 AUDIO
    TITLE "0:"
    INDEX 01 00:29:62
  TRACK 26 AUDIO
    TITLE "13:cjc029_1812"
    INDEX 01 00:30:46
  TRACK 27 AUDIO
    TITLE "0:"
    INDEX 01 00:31:39
  TRACK 28 AUDIO
    TITLE "14:cjc029_1813"
    INDEX 01 00:31:43
  TRACK 29 AUDIO
    TITLE "0:"
    INDEX 01 00:33:56
  TRACK 30 AUDIO
    TITLE "13:cjc029_1814"
    INDEX 01 00:34:38
  TRACK 31 AUDIO
    TITLE "0:"
    INDEX 01 00:35:47
  TRACK 32 AUDIO
    TITLE "14:cjc029_1815"
    INDEX 01 00:35:57
  TRACK 33 AUDIO
    TITLE "0:"
    INDEX 01 00:37:22
  TRACK 34 AUDIO
    TITLE "13:cjc029_1816"
    INDEX 01 00:38:02
  TRACK 35 AUDIO
    TITLE "0:"
    INDEX 01 00:39:09
  TRACK 36 AUDIO
    TITLE "14:cjc029_1817"
    INDEX 01 00:39:15
  TRACK 37 AUDIO
    TITLE "0:"
    INDEX 01 00:43:58
  TRACK 38 AUDIO
    TITLE "13:cjc029_1818"
    INDEX 01 00:44:42
  TRACK 39 AUDIO
    TITLE "0:"
    INDEX 01 00:45:43
  TRACK 40 AUDIO
    TITLE "14:cjc029_1819"
    INDEX 01 00:45:47
  TRACK 41 AUDIO
    TITLE "0:"
    INDEX 01 00:48:34
  TRACK 42 AUDIO
    TITLE "13:cjc029_1820"
    INDEX 01 00:49:16
  TRACK 43 AUDIO
    TITLE "0:"
    INDEX 01 00:50:41
  TRACK 44 AUDIO
    TITLE "14:cjc029_1821"
    INDEX 01 00:50:44
  TRACK 45 AUDIO
    TITLE "0:"
    INDEX 01 00:53:41
  TRACK 46 AUDIO
    TITLE "13:cjc029_1822"
    INDEX 01 00:54:25
  TRACK 47 AUDIO
    TITLE "0:"
    INDEX 01 00:55:28
  TRACK 48 AUDIO
    TITLE "14:cjc029_1823"
    INDEX 01 00:55:34
  TRACK 49 AUDIO
    TITLE "0:"
    INDEX 01 00:58:44
  TRACK 50 AUDIO
    TITLE "13:cjc029_1824"
    INDEX 01 00:59:34
  TRACK 51 AUDIO
    TITLE "0:"
    INDEX 01 01:00:31
  TRACK 52 AUDIO
    TITLE "14:cjc029_1825"
    INDEX 01 01:00:33
  TRACK 53 AUDIO
    TITLE "0:"
    INDEX 01 01:03:02
  TRACK 54 AUDIO
    TITLE "13:cjc029_1826"
    INDEX 01 01:03:59
  TRACK 55 AUDIO
    TITLE "0:"
    INDEX 01 01:05:11
  TRACK 56 AUDIO
    TITLE "14:cjc029_1827"
    INDEX 01 01:05:17
  TRACK 57 AUDIO
    TITLE "0:"
    INDEX 01 01:06:34
  TRACK 58 AUDIO
    TITLE "13:cjc029_1828"
    INDEX 01 01:07:12
  TRACK 59 AUDIO
    TITLE "0:"
    INDEX 01 01:08:17
  TRACK 60 AUDIO
    TITLE "14:cjc029_1829"
    INDEX 01 01:08:21
  TRACK 61 AUDIO
    TITLE "0:"
    INDEX 01 01:12:36
  TRACK 62 AUDIO
    TITLE "13:cjc029_1830"
    INDEX 01 01:13:16
  TRACK 63 AUDIO
    TITLE "0:"
    INDEX 01 01:14:17
  TRACK 64 AUDIO
    TITLE "14:cjc029_1831"
    INDEX 01 01:14:19
  TRACK 65 AUDIO
    TITLE "0:"
    INDEX 01 01:16:32
  TRACK 66 AUDIO
    TITLE "13:cjc029_1832"
    INDEX 01 01:17:14
  TRACK 67 AUDIO
    TITLE "0:"
    INDEX 01 01:18:35
  TRACK 68 AUDIO
    TITLE "14:cjc029_1833"
    INDEX 01 01:18:41
  TRACK 69 AUDIO
    TITLE "0:"
    INDEX 01 01:19:44
